# xmcd CD database file
#
# Track frame offsets:
#	150
#	18275
#	31414
#	48250
#	61153
#	78841
#	96556
#	115001
#	126873
#	142164
#	157177
#	166065
#	183272
#	200358
#
# Disc length: 2827 seconds
#
# Revision: 0
# Processed by: cddbd v1.4PL0 Copyright (c) Steve Scherf et al.
# Submitted via: CDex 1.50beta9
#
DISCID=b60b090e
DTITLE=Various Artist - Honkytonk Style V.1
DYEAR=2002
DGENRE=Country
TTITLE0=Speed Limit/Voices Of The Highlands
TTITLE1=Delbert McClinton/Sqeeuze Me In
TTITLE2=Billy 'Bubba' King/Sara
TTITLE3=Diamond Jack/Things
TTITLE4=Jamie Richards/Don't Try To Find Me
TTITLE5=Broadcaster/New Way To Fly
TTITLE6=Jody Jenkins/Dancers Den
TTITLE7=Gary Perkins/Grandma's Feather Bed
TTITLE8=Borderers/Saying Sorry
TTITLE9=Paul Bailey/Love Me Forever
TTITLE10=Roger Wallace/Moonlight Never Shines On A Loner
TTITLE11=Merv and Maria/I Ride A Horse (Style Mix)
TTITLE12=Band Of Oz/Johnny 'B' Goode
TTITLE13=Everly's Experience/Cathy's Clown
EXTD=YEAR: 2002
EXTT0=
EXTT1=
EXTT2=
EXTT3=
EXTT4=
EXTT5=
EXTT6=
EXTT7=
EXTT8=
EXTT9=
EXTT10=
EXTT11=
EXTT12=
EXTT13=
PLAYORDER=
